<?xml version="1.0" encoding="UTF-8"?>
<svg width="1000px" height="300px" viewBox="0 0 1000 300" version="1.1" xmlns="http://www.w3.org/2000/svg" xmlns:xlink="http://www.w3.org/1999/xlink">
    <g id="Page-1" stroke="none" stroke-width="1" fill="none" fill-rule="evenodd">
        <g id="paypal" fill-rule="nonzero">
            <rect id="Rectangle" fill="#FFFFFF" x="0" y="0" width="1000" height="300"></rect>
            <g id="Group" transform="translate(250.000000, 50.000000)">
                <path d="M142.7,0 L46.7,0 C42.2,0 38.3,3.3 37.5,7.7 L0.3,186.2 C-0.3,189.5 2.1,192.6 5.5,192.6 L47.2,192.6 C51.7,192.6 55.6,189.3 56.4,184.9 L66.7,120.8 C67.5,116.4 71.4,113.1 75.9,113.1 L105.2,113.1 C161.1,113.1 192.3,86.7 200.5,34.5 C204.1,14.1 199.6,0 142.7,0 Z" id="Path" fill="#003087"></path>
                <path d="M142.7,0 L46.7,0 C42.2,0 38.3,3.3 37.5,7.7 L0.3,186.2 C-0.3,189.5 2.1,192.6 5.5,192.6 L47.2,192.6 C51.7,192.6 55.6,189.3 56.4,184.9 L66.7,120.8 C67.5,116.4 71.4,113.1 75.9,113.1 L105.2,113.1 C161.1,113.1 192.3,86.7 200.5,34.5 C204.1,14.1 199.6,0 142.7,0 Z" id="Path" fill="#003087"></path>
                <path d="M237.4,33.5 C229.2,85.7 198,112.1 142.1,112.1 L112.8,112.1 C108.3,112.1 104.4,115.4 103.6,119.8 L93.3,183.9 C92.5,188.3 88.6,191.6 84.1,191.6 L42.4,191.6 C39,191.6 36.6,188.5 37.2,185.2 L74.4,6.7 C75.2,2.3 79.1,-1 83.6,-1 L179.6,-1 C236.5,-1 241,13.1 237.4,33.5 Z" id="Path" fill="#0070E0"></path>
                <path d="M100.7,33.9 C101.3,30.6 104.2,28.3 107.6,28.3 L172.1,28.3 C178.7,28.3 184.8,28.7 190.3,29.7 C192.4,30.1 194.5,30.5 196.4,31 C198.3,31.5 200.2,32.1 201.9,32.8 C202.8,33.1 203.6,33.5 204.4,33.9 C211.8,14.1 204.4,0 147.5,0 L51.5,0 C47,0 43.1,3.3 42.3,7.7 L5.1,186.2 C4.5,189.5 6.9,192.6 10.3,192.6 L52,192.6 C56.5,192.6 60.4,189.3 61.2,184.9 L71.5,120.8 C72.3,116.4 76.2,113.1 80.7,113.1 L110,113.1 C165.9,113.1 197.1,86.7 205.3,34.5 C205.5,34.3 205.5,34.1 205.7,33.9 C204.2,33.9 102.8,33.9 100.7,33.9 Z" id="Path" fill="#003087"></path>
                <path d="M201.9,32.8 C200.2,32.1 198.3,31.5 196.4,31 C194.5,30.5 192.4,30.1 190.3,29.7 C184.8,28.7 178.7,28.3 172.1,28.3 L107.6,28.3 C104.2,28.3 101.3,30.6 100.7,33.9 L102.8,33.9 C204.2,33.9 205.7,33.9 205.7,33.9 C205.5,34.1 205.5,34.3 205.3,34.5 C197.1,86.7 165.9,113.1 110,113.1 L80.7,113.1 C76.2,113.1 72.3,116.4 71.5,120.8 L61.2,184.9 C60.4,189.3 56.5,192.6 52,192.6 L10.3,192.6 C6.9,192.6 4.5,189.5 5.1,186.2 L42.3,7.7 C43.1,3.3 47,0 51.5,0 L147.5,0 C204.4,0 211.8,14.1 204.4,33.9 C203.6,33.5 202.8,33.1 201.9,32.8 Z" id="Path" fill="#0070E0"></path>
                <path d="M100.7,33.9 C101.3,30.6 104.2,28.3 107.6,28.3 L172.1,28.3 C178.7,28.3 184.8,28.7 190.3,29.7 C192.4,30.1 194.5,30.5 196.4,31 C198.3,31.5 200.2,32.1 201.9,32.8 C202.8,33.1 203.6,33.5 204.4,33.9 C211.8,14.1 204.4,0 147.5,0 L51.5,0 C47,0 43.1,3.3 42.3,7.7 L5.1,186.2 C4.5,189.5 6.9,192.6 10.3,192.6 L52,192.6 C56.5,192.6 60.4,189.3 61.2,184.9 L71.5,120.8 C72.3,116.4 76.2,113.1 80.7,113.1 L110,113.1 C165.9,113.1 197.1,86.7 205.3,34.5 C205.5,34.3 205.5,34.1 205.7,33.9 C204.2,33.9 102.8,33.9 100.7,33.9 Z" id="Path" fill="#003087"></path>
            </g>
        </g>
    </g>
</svg>
