<?xml version="1.0" encoding="UTF-8"?>
<svg width="1000px" height="324px" viewBox="0 0 1000 324" version="1.1" xmlns="http://www.w3.org/2000/svg" xmlns:xlink="http://www.w3.org/1999/xlink">
    <g id="Page-1" stroke="none" stroke-width="1" fill="none" fill-rule="evenodd">
        <g id="visa" fill-rule="nonzero">
            <rect id="Rectangle" fill="#FFFFFF" x="0" y="0" width="1000" height="324"></rect>
            <path d="M433.4,177.7 L402.4,177.7 L421.5,107.3 L452.5,107.3 L433.4,177.7 Z M620.7,109.2 C613.8,106.5 602.7,103.6 588.5,103.6 C557.3,103.6 535.8,119.9 535.7,143.4 C535.5,160.9 550.9,170.6 562.4,176.4 C574.2,182.3 578.2,186.1 578.2,191.4 C578.1,199.7 567.7,203.4 558,203.4 C544.9,203.4 537.5,201.4 525.7,196.3 L521.8,194.1 L517.5,219.9 C525.6,223.5 540.6,226.7 556.2,226.8 C589.5,226.8 610.5,210.7 610.7,185.6 C610.8,171.5 601.8,160.6 583.2,151.8 C572.2,146.2 565.7,142.5 565.8,136.8 C565.8,131.7 571.7,126.4 584.1,126.4 C594.5,126.3 602.2,128.8 608,131.4 L610.8,132.8 L615,107.9 L620.7,109.2 Z M724.1,177.7 L697.2,177.7 L696.8,175.2 C685.1,147.2 665.2,118.6 665.2,118.6 L644.3,177.7 L612.2,177.7 L591.7,116.6 C591.7,116.6 589.5,107.9 588.5,104.3 L588.5,107.3 L631.7,177.7 L664.9,177.7 L692.9,107.3 L724.1,107.3 L724.1,177.7 Z M380.1,107.3 L350.3,107.3 C342.9,107.3 337.3,109.3 334,117.1 L290.4,177.7 L323.7,177.7 L329.2,164.6 L367.2,164.6 L369.8,177.7 L399.2,177.7 L380.1,107.3 Z M338.4,144.8 L354.1,116.2 L361.9,144.8 L338.4,144.8 Z" id="Shape" fill="#00579F"></path>
            <path d="M270.1,107.3 L245.5,155.6 L242.4,142.1 C236.3,124.7 217.9,106.1 197.1,97.2 L225.2,177.6 L258.8,177.6 L304.8,107.3 L270.1,107.3 Z" id="Path" fill="#FAA61A"></path>
            <path d="M213.1,107.3 L165.6,107.3 L165,109.8 C203.6,119.3 229.3,139.2 242.4,142.1 L233.4,115.2 C231.4,108.1 223.1,107.6 213.1,107.3 Z" id="Path" fill="#FAA61A"></path>
        </g>
    </g>
</svg>
